<svg width="158" height="32" viewBox="0 0 158 32" fill="none" xmlns="http://www.w3.org/2000/svg">
<g clip-path="url(#clip0_5_2550)">
<path d="M32.9289 15.3266C32.9289 14.6588 32.8576 13.9989 32.7127 13.3469C32.706 13.2728 32.7054 13.1981 32.6913 13.1251C32.2555 10.8258 31.3575 8.72195 30.0074 6.81244C29.2497 5.742 28.3893 4.76253 27.3734 3.9274C27.3065 3.86338 27.2431 3.79542 27.1723 3.73701C24.3603 1.41864 21.1371 0.165669 17.4928 0.0145929C16.4746 -0.0275286 15.4586 0.017401 14.4539 0.211722C14.3702 0.218461 14.2854 0.218461 14.2034 0.233625C12.058 0.638553 10.0423 1.38102 8.22099 2.59973C4.32054 5.20902 1.90726 8.81967 1.11537 13.448C0.581834 16.5667 0.991817 19.5921 2.31331 22.4878C5.31011 29.0543 12.5045 33.3889 20.2969 31.5917C26.5444 30.1506 30.5639 26.181 32.419 20.0453C32.8829 18.511 33.0081 16.9267 32.9289 15.3266ZM31.248 19.7084C29.5502 25.1741 26.0328 28.9077 20.4447 30.268C14.2174 31.7832 9.06623 29.7496 5.12253 24.7377C3.0788 22.1407 2.04598 19.1406 2.10663 15.8225C2.18245 11.6974 3.79262 8.21313 6.74562 5.36234C8.74611 3.43093 11.1251 2.15942 13.8507 1.55849C13.8861 1.55062 13.9186 1.53153 13.9529 1.51749C13.9686 1.53209 13.9849 1.54332 14.0017 1.55175C14.0169 1.53265 14.0332 1.51637 14.0506 1.50401C14.7212 1.41303 15.389 1.29621 16.0663 1.25971C19.9184 1.05528 23.3196 2.21221 26.304 4.63954C27.2661 5.42187 28.1214 6.31597 28.8403 7.31341C30.3219 9.37119 31.3378 11.6368 31.649 14.1848C31.7613 15.1014 31.7759 16.0185 31.7489 16.9385H31.7473C31.7473 16.9385 31.7422 16.9413 31.7394 16.9435C31.7422 16.9474 31.745 16.9514 31.7484 16.9547C31.6467 17.8848 31.5265 18.8126 31.248 19.7084Z" fill="white" style="fill:white;fill-opacity:1;"/>
<path d="M29.3761 15.8248C25.2926 11.7732 21.2068 7.72395 17.1272 3.66849C16.9699 3.51236 16.8924 3.4854 16.7183 3.6595C13.7344 6.64115 10.7427 9.61492 7.75204 12.5904C6.67204 13.6648 5.59036 14.738 4.50924 15.8118C4.38063 15.8933 4.27504 15.9781 4.46319 16.1084C4.62887 16.2662 4.79454 16.4234 4.96022 16.5813C5.03548 16.6633 5.10737 16.7486 5.18599 16.8273C9.01737 20.6384 12.8515 24.4479 16.6779 28.2652C16.8666 28.4534 16.9576 28.491 17.1693 28.2787C19.3607 26.0805 21.5673 23.8969 23.7672 21.7066C24.6742 20.8035 25.5739 19.8937 26.477 18.9867C27.4643 18.0179 28.45 17.0474 29.4407 16.0825C29.5861 15.9405 29.4441 15.8927 29.3761 15.8248ZM17.5321 25.9822V23.4021C17.531 22.476 17.531 21.5494 17.5298 20.6232V20.6025C17.5293 20.1234 17.5293 19.6449 17.5282 19.1664C17.5282 19.1664 17.5282 19.166 17.5282 19.1653C17.5282 19.1653 17.5287 19.1636 17.5282 19.163C17.5287 19.1625 17.5282 19.1619 17.5282 19.1619C17.5287 19.1613 17.5282 19.1608 17.5282 19.1608C17.5287 19.1602 17.5282 19.1597 17.5282 19.1597C17.5287 19.1585 17.5287 19.158 17.5282 19.1574C17.5287 19.1563 17.5287 19.1557 17.5282 19.1552C17.5287 19.1552 17.5282 19.154 17.5282 19.154C17.5287 19.1529 17.5287 19.1512 17.5282 19.1507C17.5287 19.149 17.5287 19.1473 17.5282 19.1462C17.5276 18.6143 17.527 18.0825 17.5259 17.5506V17.545C17.5259 17.331 17.5254 17.1176 17.5248 16.9036V16.8806C17.5248 16.7396 17.531 16.6548 17.7348 16.6554C19.7303 16.6616 21.7257 16.6627 23.7206 16.6633H23.7374C24.7287 16.6633 25.72 16.6633 26.7112 16.6638C26.746 16.6638 26.7809 16.67 26.8786 16.6784C23.7779 19.8089 20.6878 22.8798 17.5321 25.9822ZM17.5343 6.05818C17.659 6.09581 17.7247 6.18736 17.8 6.26093C18.8227 7.26286 19.8437 8.26704 20.8659 9.26953C20.9321 9.33468 21.004 9.39365 21.0731 9.45543C21.1062 9.488 21.1394 9.52001 21.1725 9.55202C21.2921 9.70254 21.4264 9.83901 21.5808 9.95414C21.5993 10.0036 21.633 10.0378 21.683 10.0552C21.7083 10.112 21.7487 10.153 21.806 10.1765C22.2643 10.6416 22.7181 11.1105 23.1809 11.571C24.18 12.564 25.1836 13.553 26.185 14.5431C26.2069 14.5993 26.2456 14.6392 26.3018 14.6611C26.3203 14.7139 26.3557 14.7498 26.4085 14.7684C26.4304 14.8251 26.4692 14.8644 26.5259 14.8863C26.545 14.9385 26.5804 14.9739 26.6326 14.993C26.6944 15.0711 26.7561 15.1486 26.8168 15.2249C26.7573 15.2996 26.6865 15.2676 26.627 15.2676C23.6981 15.2682 20.7687 15.2643 17.8399 15.2704C17.6085 15.271 17.5242 15.2384 17.5254 14.9733C17.5298 13.4895 17.5304 12.0052 17.5293 10.5214V10.5057C17.5332 10.3018 17.5377 10.1002 17.5478 9.8963C17.5568 9.70591 17.5422 9.51327 17.5287 9.32008C17.5287 9.32008 17.5287 9.3197 17.5287 9.31895C17.5287 9.31895 17.5282 9.31839 17.5287 9.31783V9.30491C17.5276 8.27434 17.5259 7.24433 17.5254 6.21375C17.5254 6.16882 17.5304 6.12333 17.5343 6.05818ZM16.1943 6.16208C16.2291 6.22667 16.2415 6.3008 16.2381 6.38954C16.2364 6.43279 16.2336 6.49119 16.2477 6.53612V7.16008C16.2055 7.2286 16.2376 7.32688 16.2376 7.40102C16.2314 9.94628 16.2325 12.4915 16.2325 15.0368C16.2325 15.0784 16.2347 15.1194 16.2398 15.1587C16.2224 15.2306 16.1718 15.2732 16.0264 15.2727C13.0992 15.2637 10.1721 15.2665 7.24433 15.2665H7.03148C10.0889 12.1961 13.1026 9.18529 16.1943 6.16208ZM16.2488 25.78C16.2488 25.8048 16.2404 25.8289 16.2274 25.9036C13.1138 22.8546 10.0654 19.7915 6.97868 16.661H8.60514C11.065 16.661 13.5255 16.6621 15.986 16.6593C16.1511 16.6593 16.2555 16.6526 16.255 16.8834C16.246 19.8488 16.2494 22.8141 16.2488 25.78Z" fill="white" style="fill:white;fill-opacity:1;"/>
<path d="M12.4685 25.5402C11.8609 25.5425 11.2526 25.5464 10.6449 25.5329C8.79272 25.4908 7.4628 24.1469 7.43978 22.2974C7.43248 21.6898 7.43753 21.0821 7.43528 20.4739C7.43528 20.3829 7.45326 20.2863 7.37575 20.2105C7.01744 19.8611 6.66081 19.5112 6.2615 19.1204C6.31092 20.3037 6.23342 21.4258 6.30867 22.5474C6.46537 24.873 8.21481 26.5938 10.5422 26.6663C11.598 26.6989 12.6555 26.6758 13.7125 26.677C13.7541 26.677 13.8074 26.6927 13.8344 26.6242C13.4985 26.3069 13.1576 25.9895 12.8229 25.6655C12.7201 25.5655 12.6067 25.5397 12.4685 25.5402Z" fill="white" style="fill:white;fill-opacity:1;"/>
<path d="M21.4039 6.46424C21.9936 6.4575 22.5827 6.45469 23.1719 6.46649C24.8556 6.49906 26.2496 7.76158 26.4327 9.4369C26.5057 10.1069 26.4461 10.7831 26.4562 11.4559C26.4574 11.548 26.4253 11.6497 26.4888 11.7289C26.8213 12.1389 27.2088 12.4938 27.607 12.8521C27.5924 11.616 27.7188 10.3911 27.534 9.1763C27.2358 7.21176 25.7098 5.6454 23.8318 5.39772C22.5783 5.23204 21.3152 5.37301 20.0566 5.32022C20.3795 5.66225 20.6862 5.97788 20.9816 6.30305C21.1006 6.43391 21.2349 6.46649 21.4039 6.46424Z" fill="white" style="fill:white;fill-opacity:1;"/>
<path d="M7.2887 11.826C7.40159 11.7098 7.43697 11.5834 7.43416 11.4239C7.42462 10.8909 7.42405 10.358 7.42799 9.82499C7.44315 7.91323 8.83765 6.50132 10.7511 6.46593C11.3307 6.45583 11.9103 6.46762 12.4899 6.46706C12.573 6.46706 12.6887 6.48728 12.7342 6.44291C13.0992 6.08066 13.4514 5.70606 13.7996 5.34213C12.6971 5.34213 11.5834 5.29496 10.4748 5.35224C8.27996 5.46625 6.5468 7.15785 6.31879 9.34592C6.1986 10.5023 6.29744 11.6626 6.31373 12.8555C6.63835 12.5118 6.95959 12.1653 7.2887 11.826Z" fill="white" style="fill:white;fill-opacity:1;"/>
<path d="M27.6003 21.0231C27.6098 20.4031 27.6025 19.7831 27.6025 19.0928C27.2464 19.4596 26.9117 19.7499 26.6309 20.0948C26.4686 20.1925 26.4298 20.3396 26.4293 20.5227C26.4282 21.2803 26.5012 22.0436 26.3984 22.7945C26.1861 24.3462 24.9258 25.465 23.3437 25.5301C22.6805 25.5576 22.0155 25.5357 21.3511 25.5369C21.25 25.5374 21.1484 25.5195 21.0636 25.6076C20.7238 25.9598 20.3795 26.308 20.0049 26.6904C21.2753 26.659 22.5075 26.7387 23.738 26.6365C23.9048 26.623 24.0716 26.5882 24.235 26.5512C26.071 26.1327 27.5228 24.4153 27.5447 22.6389C27.5553 22.6131 27.5666 22.5884 27.5666 22.5592V22.512C27.6424 22.0178 27.593 21.519 27.6003 21.0231Z" fill="white" style="fill:white;fill-opacity:1;"/>
</g>
<path d="M147.764 23.8537V7.46341H151.509V10.1951H151.68C151.979 9.24898 152.491 8.51981 153.217 8.00762C153.949 7.48831 154.785 7.22865 155.724 7.22865C155.938 7.22865 156.176 7.23932 156.439 7.26066C156.71 7.27489 156.934 7.29979 157.112 7.33536V10.8887C156.948 10.8318 156.688 10.782 156.333 10.7393C155.984 10.6895 155.646 10.6646 155.319 10.6646C154.615 10.6646 153.981 10.8176 153.419 11.1235C152.865 11.4223 152.427 11.8384 152.107 12.3719C151.787 12.9055 151.627 13.5208 151.627 14.218V23.8537H147.764Z" fill="white" style="fill:white;fill-opacity:1;"/>
<path d="M137.809 24.1738C136.166 24.1738 134.746 23.8323 133.551 23.1494C132.363 22.4593 131.449 21.4848 130.809 20.2256C130.169 18.9593 129.849 17.469 129.849 15.7546C129.849 14.0686 130.169 12.5889 130.809 11.3155C131.456 10.0351 132.36 9.03913 133.519 8.32774C134.679 7.60925 136.041 7.25 137.606 7.25C138.616 7.25 139.57 7.41362 140.466 7.74085C141.369 8.06097 142.166 8.55894 142.856 9.23476C143.553 9.91057 144.101 10.7713 144.499 11.8171C144.898 12.8557 145.097 14.0935 145.097 15.5305V16.7149H131.663V14.1113H141.394C141.387 13.3714 141.227 12.7134 140.914 12.1372C140.601 11.5539 140.164 11.095 139.602 10.7607C139.047 10.4263 138.399 10.2591 137.66 10.2591C136.87 10.2591 136.176 10.4512 135.579 10.8354C134.981 11.2124 134.515 11.7104 134.181 12.3293C133.854 12.9411 133.686 13.6133 133.679 14.346V16.6189C133.679 17.5722 133.854 18.3902 134.202 19.0732C134.551 19.749 135.038 20.2683 135.664 20.6311C136.29 20.9868 137.023 21.1646 137.862 21.1646C138.424 21.1646 138.933 21.0864 139.388 20.9299C139.843 20.7663 140.238 20.5279 140.573 20.2149C140.907 19.9019 141.16 19.5142 141.33 19.0518L144.937 19.4573C144.709 20.4106 144.275 21.2429 143.635 21.9543C143.002 22.6585 142.191 23.2063 141.202 23.5976C140.213 23.9817 139.082 24.1738 137.809 24.1738Z" fill="white" style="fill:white;fill-opacity:1;"/>
<path d="M124.818 24.0884C124.171 24.0884 123.616 23.8608 123.153 23.4055C122.691 22.9502 122.463 22.3953 122.471 21.7409C122.463 21.1006 122.691 20.5529 123.153 20.0976C123.616 19.6423 124.171 19.4146 124.818 19.4146C125.444 19.4146 125.988 19.6423 126.451 20.0976C126.92 20.5529 127.159 21.1006 127.166 21.7409C127.159 22.1748 127.045 22.5696 126.824 22.9253C126.611 23.281 126.326 23.5656 125.971 23.779C125.622 23.9853 125.238 24.0884 124.818 24.0884Z" fill="white" style="fill:white;fill-opacity:1;"/>
<path d="M108.591 14.25V23.8537H104.728V7.46341H108.421V10.2485H108.613C108.99 9.33079 109.591 8.60163 110.416 8.06098C111.248 7.52033 112.276 7.25 113.5 7.25C114.631 7.25 115.616 7.49187 116.456 7.97561C117.302 8.45935 117.957 9.16006 118.419 10.0777C118.889 10.9954 119.12 12.1087 119.113 13.4177V23.8537H115.25V14.0152C115.25 12.9197 114.965 12.0625 114.396 11.4436C113.834 10.8247 113.055 10.5152 112.059 10.5152C111.383 10.5152 110.782 10.6646 110.256 10.9634C109.737 11.2551 109.328 11.6784 109.029 12.2332C108.737 12.7881 108.591 13.4604 108.591 14.25Z" fill="white" style="fill:white;fill-opacity:1;"/>
<path d="M90.8813 14.25V23.8537H87.0185V7.46341H90.7106V10.2485H90.9026C91.2797 9.33079 91.8808 8.60163 92.706 8.06098C93.5383 7.52033 94.5663 7.25 95.7898 7.25C96.9209 7.25 97.9062 7.49187 98.7456 7.97561C99.5922 8.45935 100.247 9.16006 100.709 10.0777C101.179 10.9954 101.41 12.1087 101.403 13.4177V23.8537H97.5398V14.0152C97.5398 12.9197 97.2553 12.0625 96.6862 11.4436C96.1242 10.8247 95.3452 10.5152 94.3493 10.5152C93.6735 10.5152 93.0724 10.6646 92.5459 10.9634C92.0266 11.2551 91.6176 11.6784 91.3188 12.2332C91.0271 12.7881 90.8813 13.4604 90.8813 14.25Z" fill="white" style="fill:white;fill-opacity:1;"/>
<path d="M75.0814 24.1844C74.0427 24.1844 73.1073 23.9995 72.275 23.6296C71.4497 23.2525 70.7953 22.6977 70.3115 21.9649C69.8349 21.2322 69.5966 20.3288 69.5966 19.2546C69.5966 18.3298 69.7673 17.565 70.1088 16.9604C70.4503 16.3557 70.9162 15.872 71.5067 15.5091C72.0971 15.1463 72.7622 14.8725 73.5021 14.6875C74.249 14.4954 75.0209 14.3567 75.8176 14.2713C76.778 14.1717 77.557 14.0828 78.1545 14.0046C78.7521 13.9192 79.186 13.7912 79.4564 13.6204C79.7338 13.4426 79.8725 13.1687 79.8725 12.7988V12.7348C79.8725 11.9309 79.6342 11.3084 79.1576 10.8674C78.6809 10.4263 77.9945 10.2058 77.0981 10.2058C76.152 10.2058 75.4015 10.4121 74.8466 10.8247C74.2988 11.2373 73.9289 11.7246 73.7368 12.2866L70.1301 11.7744C70.4147 10.7785 70.8842 9.94614 71.5387 9.27744C72.1931 8.60162 72.9934 8.09654 73.9396 7.76219C74.8857 7.42073 75.9315 7.25 77.0768 7.25C77.8664 7.25 78.6525 7.34248 79.435 7.52744C80.2175 7.7124 80.9325 8.01829 81.5798 8.44512C82.2272 8.86484 82.7465 9.4375 83.1378 10.1631C83.5361 10.8887 83.7353 11.7957 83.7353 12.8841V23.8537H80.0219V21.6021H79.8939C79.6591 22.0574 79.3283 22.4842 78.9015 22.8826C78.4818 23.2739 77.9518 23.5904 77.3115 23.8323C76.6784 24.0671 75.935 24.1844 75.0814 24.1844ZM76.0844 21.346C76.8598 21.346 77.5321 21.1931 78.1012 20.8872C78.6703 20.5742 79.1078 20.1616 79.4137 19.6494C79.7267 19.1372 79.8832 18.5788 79.8832 17.9741V16.0427C79.7622 16.1423 79.5559 16.2348 79.2643 16.3201C78.9797 16.4055 78.6596 16.4802 78.3039 16.5442C77.9482 16.6082 77.5961 16.6651 77.2475 16.7149C76.8989 16.7647 76.5966 16.8074 76.3405 16.843C75.7643 16.9212 75.2485 17.0493 74.7932 17.2271C74.338 17.405 73.9787 17.654 73.7155 17.9741C73.4523 18.2871 73.3207 18.6926 73.3207 19.1905C73.3207 19.9019 73.5803 20.439 74.0996 20.8018C74.619 21.1646 75.2805 21.346 76.0844 21.346Z" fill="white" style="fill:white;fill-opacity:1;"/>
<path d="M66.9937 2V23.8537H63.1309V2H66.9937Z" fill="white" style="fill:white;fill-opacity:1;"/>
<path d="M44.9514 30V7.46341H48.7502V10.1738H48.9742C49.1734 9.77541 49.4544 9.35213 49.8172 8.90396C50.18 8.44868 50.6709 8.06097 51.2898 7.74085C51.9087 7.41362 52.6983 7.25 53.6587 7.25C54.925 7.25 56.0667 7.57368 57.084 8.22103C58.1084 8.86128 58.9194 9.81097 59.5169 11.0701C60.1216 12.3222 60.4239 13.8587 60.4239 15.6799C60.4239 17.4797 60.1287 19.0091 59.5383 20.2683C58.9478 21.5274 58.144 22.4878 57.1267 23.1494C56.1094 23.811 54.957 24.1418 53.6694 24.1418C52.7303 24.1418 51.9514 23.9853 51.3325 23.6723C50.7136 23.3592 50.2156 22.9822 49.8386 22.5412C49.4687 22.093 49.1805 21.6697 48.9742 21.2713H48.8142V30H44.9514ZM48.7395 15.6585C48.7395 16.7185 48.8889 17.6468 49.1877 18.4436C49.4935 19.2403 49.931 19.8628 50.5002 20.311C51.0764 20.752 51.7735 20.9726 52.5916 20.9726C53.4453 20.9726 54.1602 20.7449 54.7364 20.2896C55.3127 19.8272 55.7466 19.1977 56.0383 18.4009C56.337 17.5971 56.4864 16.6829 56.4864 15.6585C56.4864 14.6413 56.3406 13.7378 56.0489 12.9482C55.7573 12.1585 55.3233 11.5396 54.7471 11.0915C54.1709 10.6433 53.4524 10.4192 52.5916 10.4192C51.7664 10.4192 51.0657 10.6362 50.4895 11.0701C49.9133 11.5041 49.4758 12.1123 49.177 12.8948C48.8853 13.6773 48.7395 14.5986 48.7395 15.6585Z" fill="white" style="fill:white;fill-opacity:1;"/>
<defs>
<clipPath id="clip0_5_2550">
<rect width="32.0629" height="32" fill="white" style="fill:white;fill-opacity:1;" transform="translate(0.888474)"/>
</clipPath>
</defs>
</svg>
